fd_1_states
version=1
nRows=19
nColumns=17
inDegrees=yes

# SIMM Motion File Header:
name fd_1_states
datacolumns 17
datarows 19
otherdata 1
range 0.708462 0.717554
endheader
time	/jointset/r_shoulder/r_shoulder_elev/value	/jointset/r_shoulder/r_shoulder_elev/speed	/jointset/r_elbow/r_elbow_flex/value	/jointset/r_elbow/r_elbow_flex/speed	/forceset/TRIlong/activation	/forceset/TRIlong/fiber_length	/forceset/TRIlat/activation	/forceset/TRIlat/fiber_length	/forceset/TRImed/activation	/forceset/TRImed/fiber_length	/forceset/BIClong/activation	/forceset/BIClong/fiber_length	/forceset/BICshort/activation	/forceset/BICshort/fiber_length	/forceset/BRA/activation	/forceset/BRA/fiber_length
      0.708462	    -14.152382	     44.034796	     87.140732	   -310.129133	      0.044203	      0.160142	      0.413121	      0.102135	      0.405635	      0.097194	      0.148292	      0.104097	      0.041197	      0.102345	      0.034433	      0.069484
      0.708906	    -14.132789	     44.251957	     87.003112	   -309.993405	      0.044051	      0.160108	      0.413288	      0.102088	      0.405756	      0.097146	      0.147962	      0.104209	      0.041066	      0.102457	      0.034345	      0.069539
      0.709591	    -14.102353	     44.591237	     86.790780	   -309.808802	      0.043819	      0.160056	      0.413535	      0.102014	      0.405934	      0.097074	      0.147458	      0.104381	      0.040864	      0.102629	      0.034210	      0.069619
      0.709989	    -14.084583	     44.788609	     86.667607	   -309.708686	      0.043685	      0.160026	      0.413671	      0.101972	      0.406032	      0.097031	      0.147168	      0.104481	      0.040748	      0.102729	      0.034132	      0.069672
      0.710177	    -14.076152	     44.882868	     86.609372	   -309.666140	      0.043623	      0.160012	      0.413191	      0.101952	      0.405532	      0.097011	      0.147033	      0.104528	      0.040693	      0.102776	      0.034113	      0.069694
      0.710365	    -14.067703	     44.977172	     86.551145	   -309.624605	      0.043560	      0.159998	      0.412565	      0.101932	      0.404885	      0.096991	      0.146899	      0.104576	      0.040639	      0.102823	      0.034099	      0.069716
      0.711305	    -14.025192	     45.450908	     86.260123	   -309.437607	      0.043249	      0.159928	      0.409492	      0.101833	      0.401707	      0.096893	      0.146236	      0.104811	      0.040368	      0.103059	      0.034030	      0.069826
      0.711726	    -14.006032	     45.661975	     86.129996	   -309.357362	      0.043111	      0.159896	      0.408148	      0.101790	      0.400316	      0.096850	      0.145943	      0.104916	      0.040249	      0.103164	      0.034000	      0.069882
      0.712146	    -13.986783	     45.874271	     85.999901	   -309.285720	      0.042974	      0.159865	      0.406821	      0.101746	      0.398944	      0.096806	      0.145652	      0.105021	      0.040130	      0.103269	      0.033970	      0.069929
      0.712727	    -13.960045	     46.165590	     85.820230	   -309.185895	      0.042787	      0.159822	      0.405018	      0.101686	      0.397078	      0.096747	      0.145255	      0.105166	      0.039967	      0.103414	      0.033928	      0.070001
      0.713286	    -13.934183	     46.445316	     85.647574	   -309.095832	      0.042608	      0.159781	      0.403315	      0.101629	      0.395317	      0.096690	      0.144877	      0.105305	      0.039811	      0.103553	      0.033888	      0.070065
      0.713844	    -13.908165	     46.721871	     85.474968	   -309.000744	      0.042431	      0.159739	      0.401643	      0.101572	      0.393587	      0.096633	      0.144503	      0.105444	      0.039657	      0.103692	      0.033849	      0.070140
      0.714336	    -13.885150	     46.966258	     85.323170	   -308.926805	      0.042276	      0.159703	      0.400195	      0.101522	      0.392090	      0.096584	      0.144177	      0.105566	      0.039522	      0.103814	      0.033815	      0.070190
      0.714827	    -13.862016	     47.206820	     85.171411	   -308.843800	      0.042123	      0.159667	      0.398771	      0.101473	      0.390615	      0.096534	      0.143855	      0.105688	      0.039389	      0.103936	      0.033781	      0.070252
      0.715454	    -13.832345	     47.512817	     84.977954	   -308.742636	      0.041928	      0.159621	      0.396985	      0.101409	      0.388768	      0.096471	      0.143448	      0.105843	      0.039220	      0.104091	      0.033738	      0.070322
      0.715935	    -13.809405	     47.744231	     84.829271	   -308.656284	      0.041780	      0.159586	      0.395636	      0.101361	      0.387372	      0.096422	      0.143139	      0.105962	      0.039091	      0.104210	      0.033705	      0.070386
      0.716417	    -13.786354	     47.975947	     84.680629	   -308.575951	      0.041633	      0.159551	      0.394307	      0.101312	      0.385997	      0.096374	      0.142832	      0.106081	      0.038963	      0.104329	      0.033672	      0.070438
      0.716898	    -13.763192	     48.204170	     84.532027	   -308.487535	      0.041487	      0.159516	      0.392998	      0.101264	      0.384642	      0.096326	      0.142528	      0.106200	      0.038836	      0.104448	      0.033639	      0.070497
      0.717554	    -13.731488	     48.513218	     84.329824	   -308.369041	      0.041290	      0.159469	      0.391247	      0.101198	      0.382829	      0.096260	      0.142119	      0.106361	      0.038664	      0.104610	      0.033596	      0.070571
